<?xml version="1.0" encoding="UTF-8" standalone="no"?>
<!-- Created with Inkscape (http://www.inkscape.org/) -->

<svg
   xmlns:dc="http://purl.org/dc/elements/1.1/"
   xmlns:cc="http://creativecommons.org/ns#"
   xmlns:rdf="http://www.w3.org/1999/02/22-rdf-syntax-ns#"
   xmlns:svg="http://www.w3.org/2000/svg"
   xmlns="http://www.w3.org/2000/svg"
   xmlns:sodipodi="http://sodipodi.sourceforge.net/DTD/sodipodi-0.dtd"
   xmlns:inkscape="http://www.inkscape.org/namespaces/inkscape"
   width="336"
   height="206"
   viewBox="0 0 336 206"
   id="svg2"
   version="1.1"
   inkscape:version="0.91 r13725"
   sodipodi:docname="logo_szines_feher_szoveg.svg"
   inkscape:export-filename="C:\honlap\talaj-info.github.io\assets\img\logo_szines_feher_szoveg.png"
   inkscape:export-xdpi="90"
   inkscape:export-ydpi="90">
  <defs
     id="defs4">
    <clipPath
       id="clipPath3356"
       clipPathUnits="userSpaceOnUse">
      <path
         inkscape:connector-curvature="0"
         id="path3358"
         d="m 9.45703,4576.45 c 0,0 276.42597,145.34 676.42597,145.34 399.997,0 876.257,-261.79 1329.017,-261.79 452.77,0 669.58,132.77 669.58,132.77 l 0,-709.11 -2675.02297,0 0,692.79 z" />
    </clipPath>
    <clipPath
       id="clipPath3392"
       clipPathUnits="userSpaceOnUse">
      <path
         inkscape:connector-curvature="0"
         id="path3394"
         d="m 9.45703,1284.12 c 0,0 276.42597,145.34 676.42597,145.34 399.997,0 876.257,-261.79 1329.017,-261.79 452.77,0 669.58,132.76 669.58,132.76 l 0,-709.102 -2675.02297,0 0,692.792 z" />
    </clipPath>
  </defs>
  <sodipodi:namedview
     id="base"
     pagecolor="#ffffff"
     bordercolor="#666666"
     borderopacity="1.0"
     inkscape:pageopacity="0.0"
     inkscape:pageshadow="2"
     inkscape:zoom="1"
     inkscape:cx="206.74999"
     inkscape:cy="104.97077"
     inkscape:document-units="px"
     inkscape:current-layer="layer1"
     showgrid="false"
     units="px"
     inkscape:window-width="1366"
     inkscape:window-height="721"
     inkscape:window-x="-4"
     inkscape:window-y="-4"
     inkscape:window-maximized="1"
     inkscape:snap-bbox="true"
     inkscape:snap-bbox-midpoints="true"
     inkscape:snap-bbox-edge-midpoints="true"
     inkscape:bbox-nodes="true"
     inkscape:bbox-paths="true"
     inkscape:object-paths="true"
     inkscape:snap-intersection-paths="true"
     inkscape:object-nodes="true"
     inkscape:snap-smooth-nodes="true"
     inkscape:snap-midpoints="true"
     inkscape:snap-global="false" />
  <metadata
     id="metadata7">
    <rdf:RDF>
      <cc:Work
         rdf:about="">
        <dc:format>image/svg+xml</dc:format>
        <dc:type
           rdf:resource="http://purl.org/dc/dcmitype/StillImage" />
        <dc:title></dc:title>
      </cc:Work>
    </rdf:RDF>
  </metadata>
  <g
     inkscape:label="1. réteg"
     inkscape:groupmode="layer"
     id="layer1"
     transform="translate(0,-846.36216)">
    <path
       inkscape:connector-curvature="0"
       id="path3348"
       style="fill:#f68712;fill-opacity:1;fill-rule:nonzero;stroke:none"
       d="m 198.12581,899.56466 c 0,-29.2475 23.70875,-52.9575 52.9575,-52.9575 29.2475,0 52.95625,23.71 52.95625,52.9575 0,29.2475 -23.70875,52.9575 -52.95625,52.9575 -29.24875,0 -52.9575,-23.71 -52.9575,-52.9575" />
    <path
       style="fill:#ffffff;fill-opacity:1;fill-rule:nonzero;stroke:none"
       d="m 81.427734,874.01255 c -1.037282,0.0186 -2.06298,0.0485 -3.085937,0.082 1.022717,-0.0336 2.051645,-0.061 3.085937,-0.082 z m 7.308594,0.0312 c 0.854676,0.0295 1.711371,0.062 2.570313,0.10547 -0.859061,-0.0434 -1.716483,-0.0796 -2.570313,-0.10547 z m -10.410156,0.0508 c -4.79692,0.15768 -9.435093,0.47353 -13.894531,0.91797 l -63.84375038,70.11128 0,33.3965 L 78.326172,874.09458 Z m 13.02539,0.0566 -60.382812,104.41795 30.419922,0 42.544918,-103.24021 c -4.250893,-0.57335 -8.44425,-0.96753 -12.582028,-1.17774 z m -26.925781,0.86133 c -1.359052,0.13548 -2.699923,0.28354 -4.02539,0.44141 1.324816,-0.15755 2.6668,-0.30597 4.02539,-0.44141 z m -4.02539,0.44141 c -1.326738,0.15802 -2.635693,0.32544 -3.927735,0.5039 1.291945,-0.17813 2.601013,-0.34613 3.927735,-0.5039 z m -3.927735,0.5039 c -1.291813,0.17843 -2.566183,0.36563 -3.822265,0.5625 1.256261,-0.19667 2.53032,-0.38437 3.822265,-0.5625 z m -3.822265,0.5625 c -1.251984,0.19623 -2.485725,0.4007 -3.701172,0.61328 1.215335,-0.21256 2.449516,-0.41732 3.701172,-0.61328 z m 51.314449,-1.1875 c 0.48286,0.0652 0.9688,0.1413 1.45313,0.21094 -0.4842,-0.0694 -0.97029,-0.14572 -1.45313,-0.21094 z m 4.08204,0.60547 c 0.69841,0.11074 1.39651,0.22106 2.09765,0.33985 -0.70076,-0.11792 -1.39958,-0.22988 -2.09765,-0.33985 z m 2.40234,0.39258 c 2.06322,0.35266 4.13649,0.73719 6.2207,1.15039 -2.08416,-0.41319 -4.15865,-0.80031 -6.2207,-1.15039 z m 6.2207,1.15039 -24.861326,101.08787 30.416016,0 7.82812,-98.10935 c -4.50533,-1.10441 -8.96633,-2.10294 -13.38281,-2.97852 z m -67.734373,-0.3457 c -6.86058,1.20038 -13.140231,2.6396 -18.726563,4.15234 l -29.62109338,23.83203 0,16.91602 L 48.935547,877.1356 Z m 81.306643,3.37304 c 2.11284,0.519 4.23737,1.06104 6.36719,1.61719 -2.13038,-0.55724 -4.25403,-1.09806 -6.36719,-1.61719 z m -100.050784,0.78321 c -0.203939,0.0552 -0.393592,0.11255 -0.595703,0.16797 0.201915,-0.0554 0.391886,-0.11276 0.595703,-0.16797 z m 107.798824,1.19726 c 2.06246,0.54467 4.12992,1.10124 6.20704,1.67383 -2.07674,-0.57256 -4.14474,-1.1283 -6.20704,-1.67383 z m -117.023433,1.55664 c -0.733826,0.23734 -1.516966,0.47614 -2.214844,0.71094 0.697829,-0.23429 1.479595,-0.47365 2.214844,-0.71094 z m 123.529293,0.19727 8.14844,94.32615 30.41797,0 -22.67773,-89.80076 c -5.32957,-1.5434 -10.63617,-3.07487 -15.88868,-4.52539 z M 14.646484,886.1981 c -0.175299,0.0636 -0.374595,0.13022 -0.546875,0.19336 0.171792,-0.0629 0.371952,-0.12995 0.546875,-0.19336 z m 318.781246,4.6914 c -0.17655,0.0931 -0.41397,0.21139 -0.62304,0.31836 0.21787,-0.1116 0.44724,-0.22493 0.62304,-0.31836 z M 3.0058594,890.9442 c -1.2221482,0.56801 -1.777224,0.84616 -2.03125002,0.97656 0.22124612,-0.11357 1.09029722,-0.53342 2.03125002,-0.97656 z M 331.7832,891.72154 c -0.1914,0.0935 -0.4372,0.20484 -0.64648,0.30468 0.21876,-0.10362 0.44995,-0.20915 0.64648,-0.30468 z m -153.78906,2.09765 35.48828,84.75001 30.41797,0 -46.55273,-79.59181 c -6.47066,-1.59371 -12.92612,-3.34891 -19.35352,-5.1582 z m 147.93945,0.47656 c -2.74008,1.10736 -6.12429,2.33474 -10.14843,3.58594 l 19.125,10.94141 0,-9.83789 z m -125.11718,5.51172 c 0.60423,0.14305 1.20811,0.29176 1.8125,0.43164 -0.60438,-0.1402 -1.20827,-0.28836 -1.8125,-0.43164 z m 103.04687,1.29102 c -4.1665,0.96181 -8.76043,1.86624 -13.78516,2.65625 l 44.83204,31.66797 0,-14.69727 z m -86.01172,2.28515 56.4668,75.18556 30.41992,0 -66.48633,-72.48634 c -6.77978,-0.54714 -13.58531,-1.47751 -20.40039,-2.69922 z m 68.7461,0.88868 c -0.15225,0.0214 -0.306,0.0413 -0.45899,0.0625 0.15303,-0.0212 0.30669,-0.0411 0.45899,-0.0625 z m -12.13868,1.37695 c -5.39724,0.47198 -11.15797,0.79728 -17.29882,0.92578 l 77.75,71.76565 0,-24.3125 z m -31.15039,0.76758 c 0.57441,0.0306 1.14874,0.0633 1.72266,0.0879 -0.5737,-0.0232 -1.14846,-0.0586 -1.72266,-0.0879 z m 3.56641,0.15039 c 1.4524,0.0449 2.90317,0.0762 4.35156,0.0762 -1.44791,0 -2.90001,-0.0345 -4.35156,-0.0762 z"
       id="path3350"
       inkscape:connector-curvature="0"
       sodipodi:nodetypes="ccccccccccccccccccccccccccccccccccccccccccccccccccccccccccccccccccccccccccccccccccccccccccccccccccccccccccccccccccc" />
    <path
       style="fill:#835311;fill-opacity:1;fill-rule:nonzero;stroke:none"
       d="m 85.12695,873.97154 c -2.30443,0 -4.56385,0.0495 -6.80078,0.12304 L 0.58789,978.5204 l 0,0.049 30.38086,0 60.38281,-104.41801 c -2.08878,-0.10611 -4.16724,-0.17968 -6.22461,-0.17968 z m -20.69531,1.04101 c -5.44237,0.5424 -10.6174,1.26943 -15.49609,2.12305 l -48.34766,44.90039 0,23.08789 63.84375,-70.11133 z m 39.50195,0.31641 -42.54492,103.24024 30.41992,0 24.86133,-101.0879 c -4.29136,-0.85077 -8.54203,-1.58662 -12.73633,-2.15234 z m 26.11914,5.13086 -7.82812,98.10938 30.41992,0 -8.14844,-94.32618 c -4.85508,-1.34077 -9.6716,-2.61349 -14.44336,-3.7832 z m -99.84375,0.82812 C 12.61649,886.05187 2.09182,891.34725 0.97461,891.92075 l -0.38672,0.27344 0,12.92578 29.62109,-23.83203 z m 130.17579,7.48047 22.67773,89.80079 30.41992,0 -35.48828,-84.75001 c -5.90308,-1.66169 -11.77199,-3.36032 -17.60937,-5.05078 z m 173.90234,1.65234 c -0.8909,0.51014 -3.4906,1.90974 -8.35352,3.875 l 8.97657,4.68946 0,-8.26563 -0.62305,-0.29883 z m -18.50195,7.46094 c -3.49993,1.08821 -7.43894,2.18194 -11.92188,3.2168 l 31.04688,19.62695 0,-11.90234 -19.125,-10.94141 z m -118.4375,1.0957 46.55273,79.59181 30.41797,0 -56.4668,-75.18556 c -6.83446,-1.22517 -13.67629,-2.72461 -20.5039,-4.40625 z m 92.73046,4.77735 c -4.81131,0.75645 -10.0131,1.40429 -15.61914,1.89453 l 60.45118,48.37891 0,-18.60547 -44.83204,-31.66797 z m -51.82617,2.32812 66.48633,72.48634 30.17188,0 0,-0.2285 -77.75,-71.76565 c -1.94394,0.0407 -3.91469,0.0684 -5.9336,0.0684 -4.30887,0 -8.63718,-0.21051 -12.97461,-0.56055 z"
       id="path3360"
       inkscape:connector-curvature="0" />
    <path
       inkscape:connector-curvature="0"
       id="path3440"
       style="fill:#f68712;fill-opacity:1;fill-rule:nonzero;stroke:none"
       d="m 0.57856,998.45216 10.88819,0 0,27.27124 12.12056,0 0,-27.27124 10.88775,0 0,-9.70625 -33.8965,0 0,9.70625" />
    <path
       inkscape:connector-curvature="0"
       id="path3442"
       style="fill:#f68712;fill-opacity:1;fill-rule:evenodd;stroke:none"
       d="m 56.02731,1013.1409 -7.65237,0 3.749,-13.24999 3.90337,13.24999 z m -11.35012,12.5825 1.38675,-4.8787 12.06937,0 1.43788,4.8787 12.06887,0 -13.25,-36.97749 -12.32612,0 -13.2505,36.97749 11.86375,0" />
    <path
       inkscape:connector-curvature="0"
       id="path3444"
       style="fill:#f68712;fill-opacity:1;fill-rule:nonzero;stroke:none"
       d="m 104.84956,1025.7234 0,-8.6275 -16.64012,0 0,-28.34999 -12.12063,0 0,36.97749 28.76075,0" />
    <path
       inkscape:connector-curvature="0"
       id="path3446"
       style="fill:#f68712;fill-opacity:1;fill-rule:evenodd;stroke:none"
       d="m 130.21831,1013.1409 -7.65287,0 3.74912,-13.24999 3.90375,13.24999 z m -11.35062,12.5825 1.38662,-4.8787 12.069,0 1.43875,4.8787 12.06875,0 -13.25,-36.97749 -12.3265,0 -13.2505,36.97749 11.86388,0" />
    <path
       inkscape:connector-curvature="0"
       id="path3448"
       style="fill:#f68712;fill-opacity:1;fill-rule:nonzero;stroke:none"
       d="m 147.76331,1009.6484 c -0.97625,11.0938 4.0575,17.0513 14.74,17.0513 9.80875,0 14.43125,-5.495 14.43125,-15.2538 l 0,-22.69999 -12.12125,0 0,24.39499 c 0,2.9788 -1.23125,4.52 -3.08125,4.52 -3.18375,0 -3.18375,-4.16 -3.18375,-8.0125 l -10.785,0" />
    <path
       inkscape:connector-curvature="0"
       id="path3450"
       style="fill:#f68712;fill-opacity:1;fill-rule:nonzero;stroke:none"
       d="m 182.27331,1017.2497 13.76413,0 0,-9.3472 -13.76413,0 0,9.3472 z" />
    <path
       inkscape:connector-curvature="0"
       id="path3452"
       style="fill:#f68712;fill-opacity:1;fill-rule:nonzero;stroke:none"
       d="m 201.61706,1025.7234 12.1206,0 0,-36.97799 -12.1206,0 0,36.97799 z" />
    <path
       inkscape:connector-curvature="0"
       id="path3454"
       style="fill:#f68712;fill-opacity:1;fill-rule:nonzero;stroke:none"
       d="m 232.56831,988.74591 -11.35,0 0,36.97749 11.60625,0 0,-11.71 -0.46125,-8.4225 13.19875,20.1325 11.35,0 0,-36.97749 -11.6075,0 0,11.76129 0.4625,8.4225 -13.19875,-20.18379" />
    <path
       inkscape:connector-curvature="0"
       id="path3456"
       style="fill:#f68712;fill-opacity:1;fill-rule:nonzero;stroke:none"
       d="m 276.35831,1025.7234 0,-12.9925 13.25,0 0,-8.6287 -13.25,0 0,-6.72754 16.64,0 0,-8.62875 -28.76125,0 0,36.97749 12.12125,0" />
    <path
       inkscape:connector-curvature="0"
       id="path3458"
       style="fill:#f68712;fill-opacity:1;fill-rule:evenodd;stroke:none"
       d="m 315.95206,996.80966 c 5.34125,-0.155 7.39625,5.18624 7.39625,10.22004 0,6.1112 -2.055,10.6312 -7.29375,10.6312 -5.8025,0 -7.24125,-5.9062 -7.24125,-10.6312 0,-4.6738 1.64375,-10.22004 7.13875,-10.22004 z m 0.1025,-9.04 c -11.50375,0 -19.36125,7.55 -19.36125,19.15754 0,12.5825 7.755,19.7725 19.36125,19.7725 10.94,0 19.41375,-7.0875 19.41375,-19.67 0,-9.75879 -6.21375,-19.26004 -19.41375,-19.26004" />
    <path
       inkscape:connector-curvature="0"
       id="path3514"
       style="fill:#ffffff;fill-opacity:1;fill-rule:nonzero;stroke:none"
       d="m 0.67329,1036.9709 4.52832,0 0,11.3438 5.0415,0 0,-11.3438 4.52933,0 0,-4.0375 -14.09915,0 0,4.0375" />
    <path
       inkscape:connector-curvature="0"
       id="path3516"
       style="fill:#ffffff;fill-opacity:1;fill-rule:evenodd;stroke:none"
       d="m 26.60694,1048.3147 0,-0.2138 c -0.57675,-0.4687 -0.59825,-0.79 -0.59825,-1.4312 l 0,-5.2338 c 0,-2.67 -0.32025,-4.635 -5.61813,-4.635 -4.42187,0 -6.10987,1.3875 -6.10987,3.76 l 4.2725,0 c 0.10687,-0.9625 0.93987,-1.09 1.5595,-1.09 0.47025,0 1.45275,0.1063 1.45275,0.9188 0,2.0925 -7.96838,-0.2138 -7.96838,4.87 0,2.3287 1.88,3.375 3.99475,3.375 1.6665,0 2.94813,-0.3413 4.20838,-1.5163 l 0.2135,1.1963 4.59325,0 z m -7.00688,-2.2 c -0.876,0 -1.40962,-0.3838 -1.40962,-0.94 0,-1.4525 1.92225,-1.1113 3.375,-1.8163 0.10687,1.5388 -0.40625,2.7563 -1.96538,2.7563" />
    <path
       inkscape:connector-curvature="0"
       id="path3518"
       style="fill:#ffffff;fill-opacity:1;fill-rule:nonzero;stroke:none"
       d="m 28.64356,1048.3147 4.44336,0 0,-15.3809 -4.44336,0 0,15.3809 z" />
    <path
       inkscape:connector-curvature="0"
       id="path3520"
       style="fill:#ffffff;fill-opacity:1;fill-rule:evenodd;stroke:none"
       d="m 47.97306,1048.3147 0,-0.2138 c -0.57662,-0.4687 -0.59812,-0.79 -0.59812,-1.4312 l 0,-5.2338 c 0,-2.67 -0.32025,-4.635 -5.61813,-4.635 -4.42187,0 -6.10937,1.3875 -6.10937,3.76 l 4.2725,0 c 0.10637,-0.9625 0.93987,-1.09 1.559,-1.09 0.47025,0 1.45262,0.1063 1.45262,0.9188 0,2.0925 -7.96775,-0.2138 -7.96775,4.87 0,2.3287 1.87988,3.375 3.99463,3.375 1.666,0 2.94775,-0.3413 4.2085,-1.5163 l 0.21337,1.1963 4.59275,0 z m -7.00675,-2.2 c -0.876,0 -1.40975,-0.3838 -1.40975,-0.94 0,-1.4525 1.92238,-1.1113 3.375,-1.8163 0.107,1.5388 -0.40575,2.7563 -1.96525,2.7563" />
    <path
       inkscape:connector-curvature="0"
       id="path3522"
       style="fill:#ffffff;fill-opacity:1;fill-rule:evenodd;stroke:none"
       d="m 50.26606,1037.1209 0,10.125 c 0,1.5388 -0.25637,1.6463 -2.00775,1.6463 l 0,3.1612 c 0.7905,0.043 1.40963,0.064 2.02925,0.064 4.1445,0 4.42188,-2.0937 4.42188,-4.8712 l 0,-10.125 -4.44338,0 z m 4.44338,-1.4312 0,-3.1613 -4.44338,0 0,3.1613 4.44338,0" />
    <path
       inkscape:connector-curvature="0"
       id="path3524"
       style="fill:#ffffff;fill-opacity:1;fill-rule:nonzero;stroke:none"
       d="m 59.89744,1048.3147 4.956,0 3.78125,-11.1938 -4.27238,0 -1.94387,7.0713 -1.96538,-7.0713 -4.44337,0 3.88775,11.1938" />
    <path
       inkscape:connector-curvature="0"
       id="path3526"
       style="fill:#ffffff;fill-opacity:1;fill-rule:evenodd;stroke:none"
       d="m 73.82569,1035.7109 2.92675,0 3.67425,-3.1612 -4.46488,0 -2.13612,3.1612 z m 0.12787,5.7463 c 0,-1.195 0.748,-1.9438 2.07225,-1.9438 1.04688,0 1.96538,0.9188 1.96538,1.9438 l -4.03763,0 z m 8.481,2.265 c 0.0639,-4.0588 -2.43512,-6.9213 -6.57962,-6.9213 -3.58888,0 -6.34475,2.3488 -6.34475,6.0238 0,3.76 2.77737,5.81 6.36624,5.81 2.606,0 5.42575,-0.9175 6.19475,-3.695 l -4.25087,0 c -0.32037,0.6625 -0.9615,0.9825 -1.666,0.9825 -1.17537,0 -2.20075,-0.8763 -2.20075,-2.2 l 8.481,0" />
    <path
       inkscape:connector-curvature="0"
       id="path3528"
       style="fill:#ffffff;fill-opacity:1;fill-rule:evenodd;stroke:none"
       d="m 96.32756,1048.3147 0,-15.3813 -4.44387,0 0,5.32 c -0.93938,-1.1112 -1.92225,-1.4525 -3.332,-1.4525 -2.67038,0 -4.74263,2.4138 -4.74263,6.13 0,3.1625 1.709,5.7038 5.084,5.7038 1.43113,0 2.393,-0.4488 3.43938,-1.815 l 0,1.495 3.99512,0 z m -6.32325,-2.8838 c -1.45262,0 -1.75187,-1.3675 -1.75187,-2.5425 0,-1.2387 0.40575,-2.6487 1.87987,-2.6487 1.47363,0 1.90088,1.3462 1.90088,2.585 0,1.3025 -0.49075,2.6062 -2.02888,2.6062" />
    <path
       inkscape:connector-curvature="0"
       id="path3530"
       style="fill:#ffffff;fill-opacity:1;fill-rule:evenodd;stroke:none"
       d="m 102.46531,1041.4572 c 0,-1.195 0.748,-1.9438 2.07225,-1.9438 1.04688,0 1.96538,0.9188 1.96538,1.9438 l -4.03763,0 z m 8.48088,2.265 c 0.064,-4.0588 -2.435,-6.9213 -6.5795,-6.9213 -3.58888,0 -6.34475,2.3488 -6.34475,6.0238 0,3.76 2.77737,5.81 6.36625,5.81 2.60587,0 5.42575,-0.9175 6.19475,-3.695 l -4.2505,0 c -0.32075,0.6625 -0.96188,0.9825 -1.6665,0.9825 -1.17525,0 -2.20063,-0.8763 -2.20063,-2.2 l 8.48088,0" />
    <path
       inkscape:connector-curvature="0"
       id="path3532"
       style="fill:#ffffff;fill-opacity:1;fill-rule:nonzero;stroke:none"
       d="m 112.94044,1048.3147 4.44336,0 0,-15.3809 -4.44336,0 0,15.3809 z" />
    <path
       inkscape:connector-curvature="0"
       id="path3534"
       style="fill:#ffffff;fill-opacity:1;fill-rule:evenodd;stroke:none"
       d="m 119.68744,1048.3147 4.44337,0 0,-5.5325 c 0,-1.3463 0.25625,-2.4788 1.56,-2.4788 1.175,0 1.495,0.6625 1.495,2.3075 l 0,5.7038 4.44375,0 0,-5.5325 c 0,-1.3463 0.25625,-2.4788 1.55875,-2.4788 1.175,0 1.49625,0.6625 1.49625,2.3075 l 0,5.7038 4.4425,0 0,-6.6225 c 0,-3.055 -1.025,-4.8913 -4.29375,-4.8913 -1.645,0 -2.905,0.7038 -3.86625,2.05 -0.53375,-1.1962 -1.645,-2.05 -3.65375,-2.05 -1.60125,0 -2.99012,1.1313 -3.54525,1.9863 l 0,-1.6663 -4.08062,0 0,11.1938" />
    <path
       inkscape:connector-curvature="0"
       id="path3536"
       style="fill:#ffffff;fill-opacity:1;fill-rule:evenodd;stroke:none"
       d="m 145.86706,1048.3147 0,-11.1938 -4.4425,0 0,11.1938 4.4425,0 z m -4.4425,-12.625 4.4425,0 0,-3.1613 -4.4425,0 0,3.1613" />
    <path
       inkscape:connector-curvature="0"
       id="path3538"
       style="fill:#ffffff;fill-opacity:1;fill-rule:nonzero;stroke:none"
       d="m 168.61206,1037.3984 c -0.3625,-2.6912 -2.3075,-4.87 -6.58,-4.87 -3.845,0 -6.665,1.645 -6.665,4.9125 0,5.875 8.845,4.2725 8.845,6.6025 0,0.725 -0.83375,1.1313 -2.09375,1.1313 -0.49125,0 -1.025,-0.1288 -1.43125,-0.385 -0.4275,-0.2563 -0.72625,-0.6625 -0.8325,-1.2175 l -4.82875,0 c 0.1075,2.7775 2.75625,5.1487 6.815,5.1487 4.23,0 7.19875,-1.73 7.19875,-5.2975 0,-5.5975 -8.84375,-4.1662 -8.84375,-6.4737 0,-0.555 0.49125,-0.875 1.6025,-0.875 0.49125,0 0.94,0.085 1.3025,0.2775 0.3625,0.1925 0.64125,0.5125 0.72625,1.0462 l 4.785,0" />
    <path
       inkscape:connector-curvature="0"
       id="path3540"
       style="fill:#ffffff;fill-opacity:1;fill-rule:nonzero;stroke:none"
       d="m 181.06831,1048.3147 0,-3.2475 -5.1275,0 4.8925,-4.8488 0,-3.0975 -10.08375,0 0,3.2475 4.615,0 -5.06375,4.9775 0,2.9688 10.7675,0" />
    <path
       inkscape:connector-curvature="0"
       id="path3542"
       style="fill:#ffffff;fill-opacity:1;fill-rule:evenodd;stroke:none"
       d="m 188.77831,1039.7909 c 1.15375,-0.064 1.88,1.175 1.88,2.82 0,2.115 -0.72625,3.0338 -1.9225,3.0338 -1.1325,0 -1.9225,-0.9188 -1.9225,-3.0338 0,-1.26 0.44875,-2.82 1.965,-2.82 z m -6.40875,3.055 c 0,3.8238 2.7775,5.7888 6.36625,5.7888 3.58875,0 6.36625,-1.9225 6.36625,-6.0238 0,-3.4825 -2.435,-5.81 -6.3875,-5.81 -3.78125,0 -6.345,2.1575 -6.345,6.045" />
    <path
       inkscape:connector-curvature="0"
       id="path3544"
       style="fill:#ffffff;fill-opacity:1;fill-rule:nonzero;stroke:none"
       d="m 197.20206,1048.3147 4.44336,0 0,-15.3809 -4.44336,0 0,15.3809 z" />
    <path
       inkscape:connector-curvature="0"
       id="path3546"
       style="fill:#ffffff;fill-opacity:1;fill-rule:evenodd;stroke:none"
       d="m 209.90956,1039.9834 c 1.41,0 1.88,1.175 1.88,2.4138 0,1.1962 -0.5125,2.3712 -1.88,2.3075 -1.19625,-0.021 -1.75125,-1.0675 -1.75125,-2.1788 0,-1.4525 0.405,-2.5637 1.75125,-2.5425 z m -5.6175,8.9088 c 0.21375,1.6437 1.87875,3.225 5.83125,3.225 5.5125,0 5.89625,-2.6275 5.89625,-5.9813 l 0,-9.015 -3.90875,0 0,1.4738 c -0.79125,-1.09 -2.05125,-1.7938 -3.3975,-1.7938 -3.67375,0 -4.99875,2.9263 -4.99875,5.6813 0,2.8637 1.77375,5.2987 4.87125,5.2987 1.60125,0 2.5625,-0.5762 3.20375,-1.2175 l 0,0.9188 c 0,1.6025 -0.5125,2.1787 -1.79375,2.1787 -0.44875,0 -0.76875,-0.1075 -0.96125,-0.2787 -0.1925,-0.17 -0.27875,-0.3625 -0.27875,-0.49 l -4.46375,0" />
    <path
       inkscape:connector-curvature="0"
       id="path3548"
       style="fill:#ffffff;fill-opacity:1;fill-rule:evenodd;stroke:none"
       d="m 222.22206,1035.7109 2.92625,0 3.675,-3.1612 -4.465,0 -2.13625,3.1612 z m 8.56625,12.6038 0,-0.2138 c -0.5775,-0.4687 -0.59875,-0.79 -0.59875,-1.4312 l 0,-5.2338 c 0,-2.67 -0.32,-4.635 -5.6175,-4.635 -4.4225,0 -6.11,1.3875 -6.11,3.76 l 4.2725,0 c 0.10625,-0.9625 0.94,-1.09 1.55875,-1.09 0.47125,0 1.45375,0.1063 1.45375,0.9188 0,2.0925 -7.96875,-0.2138 -7.96875,4.87 0,2.3287 1.88,3.375 3.995,3.375 1.66625,0 2.9475,-0.3413 4.2075,-1.5163 l 0.215,1.1963 4.5925,0 z m -7.0075,-2.2 c -0.875,0 -1.40875,-0.3838 -1.40875,-0.94 0,-1.4525 1.92125,-1.1113 3.375,-1.8163 0.10625,1.5388 -0.40625,2.7563 -1.96625,2.7563" />
    <path
       inkscape:connector-curvature="0"
       id="path3550"
       style="fill:#ffffff;fill-opacity:1;fill-rule:nonzero;stroke:none"
       d="m 232.82456,1048.3147 4.44385,0 0,-15.3809 -4.44385,0 0,15.3809 z" />
    <path
       inkscape:connector-curvature="0"
       id="path3552"
       style="fill:#ffffff;fill-opacity:1;fill-rule:nonzero;stroke:none"
       d="m 247.02831,1045.1322 -0.705,0 c -1.24,0 -1.38875,-0.3638 -1.38875,-1.3888 l 0,-4.0587 2.13625,0 0,-2.5638 -2.13625,0 0,-3.4825 -4.38,0 0,3.4825 -1.645,0 0,2.5638 1.58125,0 0,4.6775 c 0,3.8675 0.705,4.2725 6.5375,3.9525 l 0,-3.1825" />
    <path
       inkscape:connector-curvature="0"
       id="path3554"
       style="fill:#ffffff;fill-opacity:1;fill-rule:evenodd;stroke:none"
       d="m 261.63706,1048.3147 0,-0.2138 c -0.57625,-0.4687 -0.5975,-0.79 -0.5975,-1.4312 l 0,-5.2338 c 0,-2.67 -0.32,-4.635 -5.61875,-4.635 -4.42125,0 -6.10875,1.3875 -6.10875,3.76 l 4.2725,0 c 0.10625,-0.9625 0.93875,-1.09 1.55875,-1.09 0.47,0 1.4525,0.1063 1.4525,0.9188 0,2.0925 -7.9675,-0.2138 -7.9675,4.87 0,2.3287 1.88,3.375 3.99375,3.375 1.6675,0 2.94875,-0.3413 4.20875,-1.5163 l 0.21375,1.1963 4.5925,0 z m -7.00625,-2.2 c -0.87625,0 -1.41,-0.3838 -1.41,-0.94 0,-1.4525 1.9225,-1.1113 3.375,-1.8163 0.1075,1.5388 -0.405,2.7563 -1.965,2.7563" />
    <path
       inkscape:connector-curvature="0"
       id="path3556"
       style="fill:#ffffff;fill-opacity:1;fill-rule:nonzero;stroke:none"
       d="m 270.76706,1045.1322 -0.705,0 c -1.23875,0 -1.38875,-0.3638 -1.38875,-1.3888 l 0,-4.0587 2.13625,0 0,-2.5638 -2.13625,0 0,-3.4825 -4.38,0 0,3.4825 -1.645,0 0,2.5638 1.58125,0 0,4.6775 c 0,3.8675 0.705,4.2725 6.5375,3.9525 l 0,-3.1825" />
    <path
       inkscape:connector-curvature="0"
       id="path3558"
       style="fill:#ffffff;fill-opacity:1;fill-rule:evenodd;stroke:none"
       d="m 276.81081,1035.7109 2.92625,0 3.67375,-3.1612 -4.46375,0 -2.13625,3.1612 z m 2.17875,4.08 c 1.15375,-0.064 1.88,1.175 1.88,2.82 0,2.115 -0.72625,3.0338 -1.9225,3.0338 -1.13375,0 -1.92375,-0.9188 -1.92375,-3.0338 0,-1.26 0.44875,-2.82 1.96625,-2.82 z m -6.40875,3.055 c 0,3.8238 2.7775,5.7888 6.36625,5.7888 3.58875,0 6.365,-1.9225 6.365,-6.0238 0,-3.4825 -2.435,-5.81 -6.38625,-5.81 -3.78125,0 -6.345,2.1575 -6.345,6.045" />
    <path
       inkscape:connector-curvature="0"
       id="path3560"
       style="fill:#ffffff;fill-opacity:1;fill-rule:nonzero;stroke:none"
       d="m 294.80081,1048.3147 5.0425,0 0,-4.87 1.19625,-1.2613 3.695,6.1313 6.04625,0 -6.2175,-9.5913 5.61875,-5.79 -5.9175,0 -4.42125,4.9775 0,-4.9775 -5.0425,0 0,15.3813" />
    <path
       inkscape:connector-curvature="0"
       id="path3562"
       style="fill:#ffffff;fill-opacity:1;fill-rule:nonzero;stroke:none"
       d="m 317.10581,1037.1209 c -0.10625,-1.795 0.40625,-1.795 1.85875,-1.795 l 0,-2.7975 -1.90125,0 c -2.84125,0 -4.37875,0.64 -4.37875,4.5925 l -1.49625,0 0,2.5638 1.47375,0 0,8.63 4.44375,0 0,-8.63 1.85875,0 0,-2.5638 -1.85875,0" />
    <path
       inkscape:connector-curvature="0"
       id="path3564"
       style="fill:#ffffff;fill-opacity:1;fill-rule:nonzero;stroke:none"
       d="m 327.71956,1045.1322 -0.70375,0 c -1.24,0 -1.38875,-0.3638 -1.38875,-1.3888 l 0,-4.0587 2.13625,0 0,-2.5638 -2.13625,0 0,-3.4825 -4.38,0 0,3.4825 -1.645,0 0,2.5638 1.58125,0 0,4.6775 c 0,3.8675 0.705,4.2725 6.53625,3.9525 l 0,-3.1825" />
    <path
       inkscape:connector-curvature="0"
       id="path3566"
       style="fill:#ffffff;fill-opacity:1;fill-rule:nonzero;stroke:none"
       d="m 330.06831,1048.3147 4.52881,0 0,-4.4009 -4.52881,0 0,4.4009 z" />
  </g>
</svg>
