<?xml version="1.0" encoding="UTF-8" standalone="no"?>
<!-- Created with Inkscape (http://www.inkscape.org/) -->

<svg
   xmlns:dc="http://purl.org/dc/elements/1.1/"
   xmlns:cc="http://creativecommons.org/ns#"
   xmlns:rdf="http://www.w3.org/1999/02/22-rdf-syntax-ns#"
   xmlns:svg="http://www.w3.org/2000/svg"
   xmlns="http://www.w3.org/2000/svg"
   xmlns:sodipodi="http://sodipodi.sourceforge.net/DTD/sodipodi-0.dtd"
   xmlns:inkscape="http://www.inkscape.org/namespaces/inkscape"
   width="340"
   height="210"
   viewBox="0 0 340 210"
   id="svg2"
   version="1.1"
   inkscape:version="0.91 r13725"
   sodipodi:docname="logo_szines.svg">
  <defs
     id="defs4">
    <clipPath
       id="clipPath3356"
       clipPathUnits="userSpaceOnUse">
      <path
         inkscape:connector-curvature="0"
         id="path3358"
         d="m 9.45703,4576.45 c 0,0 276.42597,145.34 676.42597,145.34 399.997,0 876.257,-261.79 1329.017,-261.79 452.77,0 669.58,132.77 669.58,132.77 l 0,-709.11 -2675.02297,0 0,692.79 z" />
    </clipPath>
    <clipPath
       id="clipPath3392"
       clipPathUnits="userSpaceOnUse">
      <path
         inkscape:connector-curvature="0"
         id="path3394"
         d="m 9.45703,1284.12 c 0,0 276.42597,145.34 676.42597,145.34 399.997,0 876.257,-261.79 1329.017,-261.79 452.77,0 669.58,132.76 669.58,132.76 l 0,-709.102 -2675.02297,0 0,692.792 z" />
    </clipPath>
  </defs>
  <sodipodi:namedview
     id="base"
     pagecolor="#ffffff"
     bordercolor="#666666"
     borderopacity="1.0"
     inkscape:pageopacity="0.0"
     inkscape:pageshadow="2"
     inkscape:zoom="1.372695"
     inkscape:cx="181.42857"
     inkscape:cy="61.428571"
     inkscape:document-units="px"
     inkscape:current-layer="layer1"
     showgrid="false"
     units="px"
     inkscape:window-width="1366"
     inkscape:window-height="721"
     inkscape:window-x="-4"
     inkscape:window-y="-4"
     inkscape:window-maximized="1" />
  <metadata
     id="metadata7">
    <rdf:RDF>
      <cc:Work
         rdf:about="">
        <dc:format>image/svg+xml</dc:format>
        <dc:type
           rdf:resource="http://purl.org/dc/dcmitype/StillImage" />
        <dc:title></dc:title>
      </cc:Work>
    </rdf:RDF>
  </metadata>
  <g
     inkscape:label="1. réteg"
     inkscape:groupmode="layer"
     id="layer1"
     transform="translate(0,-842.36216)">
    <g
       id="g3893"
       transform="translate(316.42857,620.79481)">
      <path
         d="m -116.30276,276.76985 c 0,-29.2475 23.70875,-52.9575 52.9575,-52.9575 29.2475,0 52.95625,23.71 52.95625,52.9575 0,29.2475 -23.70875,52.9575 -52.95625,52.9575 -29.24875,0 -52.9575,-23.71 -52.9575,-52.9575"
         style="fill:#f68712;fill-opacity:1;fill-rule:nonzero;stroke:none"
         id="path3348"
         inkscape:connector-curvature="0" />
      <path
         d="m -313.89688,269.3436 c 0,0 34.55325,-18.1675 84.55325,-18.1675 49.99962,0 109.53212,32.72375 166.12712,32.72375 56.59625,0 83.6975,-16.59625 83.6975,-16.59625 l 0,88.63875 -334.37787,0 0,-86.59875"
         style="fill:#ffffff;fill-opacity:1;fill-rule:nonzero;stroke:none"
         id="path3350"
         inkscape:connector-curvature="0" />
      <g
         transform="matrix(0.125,0,0,-0.125,-315.07901,841.39985)"
         id="g3352">
        <g
           id="g3354"
           clip-path="url(#clipPath3356)">
          <path
             d="m 580.594,5051.34 49.547,0 -1838.651,-1167.21 -243.49,0 2032.594,1167.21"
             style="fill:#835311;fill-opacity:1;fill-rule:nonzero;stroke:none"
             id="path3360"
             inkscape:connector-curvature="0" />
          <path
             d="m 679.688,5051.34 49.542,0 -1450.75,-1167.21 -243.492,0 1644.7,1167.21"
             style="fill:#835311;fill-opacity:1;fill-rule:nonzero;stroke:none"
             id="path3362"
             inkscape:connector-curvature="0" />
          <path
             d="m 778.777,5051.34 49.547,0 -1062.851,-1167.21 -243.496,0 1256.8,1167.21"
             style="fill:#835311;fill-opacity:1;fill-rule:nonzero;stroke:none"
             id="path3364"
             inkscape:connector-curvature="0" />
          <path
             d="m 877.871,5051.34 49.547,0 -674.957,-1167.21 -243.49616,0 868.90616,1167.21"
             style="fill:#835311;fill-opacity:1;fill-rule:nonzero;stroke:none"
             id="path3366"
             inkscape:connector-curvature="0" />
          <path
             d="m 976.961,5051.34 49.549,0 -287.061,-1167.21 -243.496,0 481.008,1167.21"
             style="fill:#835311;fill-opacity:1;fill-rule:nonzero;stroke:none"
             id="path3368"
             inkscape:connector-curvature="0" />
          <path
             d="m 1076.05,5051.34 49.55,0 100.84,-1167.21 -243.499,0 93.109,1167.21"
             style="fill:#835311;fill-opacity:1;fill-rule:nonzero;stroke:none"
             id="path3370"
             inkscape:connector-curvature="0" />
          <path
             d="m 1175.15,5051.34 49.54,0 488.74,-1167.21 -243.5,0 -294.78,1167.21"
             style="fill:#835311;fill-opacity:1;fill-rule:nonzero;stroke:none"
             id="path3372"
             inkscape:connector-curvature="0" />
          <path
             d="m 1274.24,5051.34 49.55,0 876.62,-1167.21 -243.49,0 -682.68,1167.21"
             style="fill:#835311;fill-opacity:1;fill-rule:nonzero;stroke:none"
             id="path3374"
             inkscape:connector-curvature="0" />
          <path
             d="m 1373.33,5051.34 49.55,0 1264.52,-1167.21 -243.49,0 -1070.58,1167.21"
             style="fill:#835311;fill-opacity:1;fill-rule:nonzero;stroke:none"
             id="path3376"
             inkscape:connector-curvature="0" />
          <path
             d="m 1472.42,5051.34 49.55,0 1652.42,-1167.21 -243.49,0 -1458.48,1167.21"
             style="fill:#835311;fill-opacity:1;fill-rule:nonzero;stroke:none"
             id="path3378"
             inkscape:connector-curvature="0" />
          <path
             d="m 1571.52,5051.34 49.54,0 2040.32,-1167.21 -243.5,0 -1846.36,1167.21"
             style="fill:#835311;fill-opacity:1;fill-rule:nonzero;stroke:none"
             id="path3380"
             inkscape:connector-curvature="0" />
          <path
             d="m 1670.61,5051.34 49.54,0 2428.22,-1167.21 -243.49,0 -2234.27,1167.21"
             style="fill:#835311;fill-opacity:1;fill-rule:nonzero;stroke:none"
             id="path3382"
             inkscape:connector-curvature="0" />
        </g>
      </g>
      <path
         d="m -313.85001,375.65735 10.88819,0 0,27.27125 12.12056,0 0,-27.27125 10.88775,0 0,-9.70625 -33.8965,0 0,9.70625"
         style="fill:#f68712;fill-opacity:1;fill-rule:nonzero;stroke:none"
         id="path3440"
         inkscape:connector-curvature="0" />
      <path
         d="m -258.40126,390.3461 -7.65237,0 3.749,-13.25 3.90337,13.25 z m -11.35012,12.5825 1.38675,-4.87875 12.06937,0 1.43788,4.87875 12.06887,0 -13.25,-36.9775 -12.32612,0 -13.2505,36.9775 11.86375,0"
         style="fill:#f68712;fill-opacity:1;fill-rule:evenodd;stroke:none"
         id="path3442"
         inkscape:connector-curvature="0" />
      <path
         d="m -209.57901,402.9286 0,-8.6275 -16.64012,0 0,-28.35 -12.12063,0 0,36.9775 28.76075,0"
         style="fill:#f68712;fill-opacity:1;fill-rule:nonzero;stroke:none"
         id="path3444"
         inkscape:connector-curvature="0" />
      <path
         d="m -184.21026,390.3461 -7.65287,0 3.74912,-13.25 3.90375,13.25 z m -11.35062,12.5825 1.38662,-4.87875 12.069,0 1.43875,4.87875 12.06875,0 -13.25,-36.9775 -12.3265,0 -13.2505,36.9775 11.86388,0"
         style="fill:#f68712;fill-opacity:1;fill-rule:evenodd;stroke:none"
         id="path3446"
         inkscape:connector-curvature="0" />
      <path
         d="m -166.66526,386.8536 c -0.97625,11.09375 4.0575,17.05125 14.74,17.05125 9.80875,0 14.43125,-5.495 14.43125,-15.25375 l 0,-22.7 -12.12125,0 0,24.395 c 0,2.97875 -1.23125,4.52 -3.08125,4.52 -3.18375,0 -3.18375,-4.16 -3.18375,-8.0125 l -10.785,0"
         style="fill:#f68712;fill-opacity:1;fill-rule:nonzero;stroke:none"
         id="path3448"
         inkscape:connector-curvature="0" />
      <path
         d="m -132.15526,394.45485 13.76413,0 0,-9.34716 -13.76413,0 0,9.34716 z"
         style="fill:#f68712;fill-opacity:1;fill-rule:nonzero;stroke:none"
         id="path3450"
         inkscape:connector-curvature="0" />
      <path
         d="m -112.81151,402.9286 12.1206,0 0,-36.978 -12.1206,0 0,36.978 z"
         style="fill:#f68712;fill-opacity:1;fill-rule:nonzero;stroke:none"
         id="path3452"
         inkscape:connector-curvature="0" />
      <path
         d="m -81.86026,365.9511 -11.35,0 0,36.9775 11.60625,0 0,-11.71 -0.46125,-8.4225 13.19875,20.1325 11.35,0 0,-36.9775 -11.6075,0 0,11.76125 0.4625,8.4225 -13.19875,-20.18375"
         style="fill:#f68712;fill-opacity:1;fill-rule:nonzero;stroke:none"
         id="path3454"
         inkscape:connector-curvature="0" />
      <path
         d="m -38.07026,402.9286 0,-12.9925 13.25,0 0,-8.62875 -13.25,0 0,-6.7275 16.64,0 0,-8.62875 -28.76125,0 0,36.9775 12.12125,0"
         style="fill:#f68712;fill-opacity:1;fill-rule:nonzero;stroke:none"
         id="path3456"
         inkscape:connector-curvature="0" />
      <path
         d="m 1.52349,374.01485 c 5.34125,-0.155 7.39625,5.18625 7.39625,10.22 0,6.11125 -2.055,10.63125 -7.29375,10.63125 -5.8025,0 -7.24125,-5.90625 -7.24125,-10.63125 0,-4.67375 1.64375,-10.22 7.13875,-10.22 z m 0.1025,-9.04 c -11.50375,0 -19.36125,7.55 -19.36125,19.1575 0,12.5825 7.755,19.7725 19.36125,19.7725 10.94,0 19.41375,-7.0875 19.41375,-19.67 0,-9.75875 -6.21375,-19.26 -19.41375,-19.26"
         style="fill:#f68712;fill-opacity:1;fill-rule:evenodd;stroke:none"
         id="path3458"
         inkscape:connector-curvature="0" />
      <path
         d="m -313.75528,414.1761 4.52832,0 0,11.34375 5.0415,0 0,-11.34375 4.52933,0 0,-4.0375 -14.09915,0 0,4.0375"
         style="fill:#835311;fill-opacity:1;fill-rule:nonzero;stroke:none"
         id="path3514"
         inkscape:connector-curvature="0" />
      <path
         d="m -287.82163,425.51985 0,-0.21375 c -0.57675,-0.46875 -0.59825,-0.79 -0.59825,-1.43125 l 0,-5.23375 c 0,-2.67 -0.32025,-4.635 -5.61813,-4.635 -4.42187,0 -6.10987,1.3875 -6.10987,3.76 l 4.2725,0 c 0.10687,-0.9625 0.93987,-1.09 1.5595,-1.09 0.47025,0 1.45275,0.10625 1.45275,0.91875 0,2.0925 -7.96838,-0.21375 -7.96838,4.87 0,2.32875 1.88,3.375 3.99475,3.375 1.6665,0 2.94813,-0.34125 4.20838,-1.51625 l 0.2135,1.19625 4.59325,0 z m -7.00688,-2.2 c -0.876,0 -1.40962,-0.38375 -1.40962,-0.94 0,-1.4525 1.92225,-1.11125 3.375,-1.81625 0.10687,1.53875 -0.40625,2.75625 -1.96538,2.75625"
         style="fill:#835311;fill-opacity:1;fill-rule:evenodd;stroke:none"
         id="path3516"
         inkscape:connector-curvature="0" />
      <path
         d="m -285.78501,425.51985 4.44336,0 0,-15.38087 -4.44336,0 0,15.38087 z"
         style="fill:#835311;fill-opacity:1;fill-rule:nonzero;stroke:none"
         id="path3518"
         inkscape:connector-curvature="0" />
      <path
         d="m -266.45551,425.51985 0,-0.21375 c -0.57662,-0.46875 -0.59812,-0.79 -0.59812,-1.43125 l 0,-5.23375 c 0,-2.67 -0.32025,-4.635 -5.61813,-4.635 -4.42187,0 -6.10937,1.3875 -6.10937,3.76 l 4.2725,0 c 0.10637,-0.9625 0.93987,-1.09 1.559,-1.09 0.47025,0 1.45262,0.10625 1.45262,0.91875 0,2.0925 -7.96775,-0.21375 -7.96775,4.87 0,2.32875 1.87988,3.375 3.99463,3.375 1.666,0 2.94775,-0.34125 4.2085,-1.51625 l 0.21337,1.19625 4.59275,0 z m -7.00675,-2.2 c -0.876,0 -1.40975,-0.38375 -1.40975,-0.94 0,-1.4525 1.92238,-1.11125 3.375,-1.81625 0.107,1.53875 -0.40575,2.75625 -1.96525,2.75625"
         style="fill:#835311;fill-opacity:1;fill-rule:evenodd;stroke:none"
         id="path3520"
         inkscape:connector-curvature="0" />
      <path
         d="m -264.16251,414.3261 0,10.125 c 0,1.53875 -0.25637,1.64625 -2.00775,1.64625 l 0,3.16125 c 0.7905,0.0425 1.40963,0.0637 2.02925,0.0637 4.1445,0 4.42188,-2.09375 4.42188,-4.87125 l 0,-10.125 -4.44338,0 z m 4.44338,-1.43125 0,-3.16125 -4.44338,0 0,3.16125 4.44338,0"
         style="fill:#835311;fill-opacity:1;fill-rule:evenodd;stroke:none"
         id="path3522"
         inkscape:connector-curvature="0" />
      <path
         d="m -254.53113,425.51985 4.956,0 3.78125,-11.19375 -4.27238,0 -1.94387,7.07125 -1.96538,-7.07125 -4.44337,0 3.88775,11.19375"
         style="fill:#835311;fill-opacity:1;fill-rule:nonzero;stroke:none"
         id="path3524"
         inkscape:connector-curvature="0" />
      <path
         d="m -240.60288,412.9161 2.92675,0 3.67425,-3.16125 -4.46488,0 -2.13612,3.16125 z m 0.12787,5.74625 c 0,-1.195 0.748,-1.94375 2.07225,-1.94375 1.04688,0 1.96538,0.91875 1.96538,1.94375 l -4.03763,0 z m 8.481,2.265 c 0.0639,-4.05875 -2.43512,-6.92125 -6.57962,-6.92125 -3.58888,0 -6.34475,2.34875 -6.34475,6.02375 0,3.76 2.77737,5.81 6.36624,5.81 2.606,0 5.42575,-0.9175 6.19475,-3.695 l -4.25087,0 c -0.32037,0.6625 -0.9615,0.9825 -1.666,0.9825 -1.17537,0 -2.20075,-0.87625 -2.20075,-2.2 l 8.481,0"
         style="fill:#835311;fill-opacity:1;fill-rule:evenodd;stroke:none"
         id="path3526"
         inkscape:connector-curvature="0" />
      <path
         d="m -218.10101,425.51985 0,-15.38125 -4.44387,0 0,5.32 c -0.93938,-1.11125 -1.92225,-1.4525 -3.332,-1.4525 -2.67038,0 -4.74263,2.41375 -4.74263,6.13 0,3.1625 1.709,5.70375 5.084,5.70375 1.43113,0 2.393,-0.44875 3.43938,-1.815 l 0,1.495 3.99512,0 z m -6.32325,-2.88375 c -1.45262,0 -1.75187,-1.3675 -1.75187,-2.5425 0,-1.23875 0.40575,-2.64875 1.87987,-2.64875 1.47363,0 1.90088,1.34625 1.90088,2.585 0,1.3025 -0.49075,2.60625 -2.02888,2.60625"
         style="fill:#835311;fill-opacity:1;fill-rule:evenodd;stroke:none"
         id="path3528"
         inkscape:connector-curvature="0" />
      <path
         d="m -211.96326,418.66235 c 0,-1.195 0.748,-1.94375 2.07225,-1.94375 1.04688,0 1.96538,0.91875 1.96538,1.94375 l -4.03763,0 z m 8.48088,2.265 c 0.064,-4.05875 -2.435,-6.92125 -6.5795,-6.92125 -3.58888,0 -6.34475,2.34875 -6.34475,6.02375 0,3.76 2.77737,5.81 6.36625,5.81 2.60587,0 5.42575,-0.9175 6.19475,-3.695 l -4.2505,0 c -0.32075,0.6625 -0.96188,0.9825 -1.6665,0.9825 -1.17525,0 -2.20063,-0.87625 -2.20063,-2.2 l 8.48088,0"
         style="fill:#835311;fill-opacity:1;fill-rule:evenodd;stroke:none"
         id="path3530"
         inkscape:connector-curvature="0" />
      <path
         d="m -201.48813,425.51985 4.44336,0 0,-15.38087 -4.44336,0 0,15.38087 z"
         style="fill:#835311;fill-opacity:1;fill-rule:nonzero;stroke:none"
         id="path3532"
         inkscape:connector-curvature="0" />
      <path
         d="m -194.74113,425.51985 4.44337,0 0,-5.5325 c 0,-1.34625 0.25625,-2.47875 1.56,-2.47875 1.175,0 1.495,0.6625 1.495,2.3075 l 0,5.70375 4.44375,0 0,-5.5325 c 0,-1.34625 0.25625,-2.47875 1.55875,-2.47875 1.175,0 1.49625,0.6625 1.49625,2.3075 l 0,5.70375 4.4425,0 0,-6.6225 c 0,-3.055 -1.025,-4.89125 -4.29375,-4.89125 -1.645,0 -2.905,0.70375 -3.86625,2.05 -0.53375,-1.19625 -1.645,-2.05 -3.65375,-2.05 -1.60125,0 -2.99012,1.13125 -3.54525,1.98625 l 0,-1.66625 -4.08062,0 0,11.19375"
         style="fill:#835311;fill-opacity:1;fill-rule:evenodd;stroke:none"
         id="path3534"
         inkscape:connector-curvature="0" />
      <path
         d="m -168.56151,425.51985 0,-11.19375 -4.4425,0 0,11.19375 4.4425,0 z m -4.4425,-12.625 4.4425,0 0,-3.16125 -4.4425,0 0,3.16125"
         style="fill:#835311;fill-opacity:1;fill-rule:evenodd;stroke:none"
         id="path3536"
         inkscape:connector-curvature="0" />
      <path
         d="m -145.81651,414.6036 c -0.3625,-2.69125 -2.3075,-4.87 -6.58,-4.87 -3.845,0 -6.665,1.645 -6.665,4.9125 0,5.875 8.845,4.2725 8.845,6.6025 0,0.725 -0.83375,1.13125 -2.09375,1.13125 -0.49125,0 -1.025,-0.12875 -1.43125,-0.385 -0.4275,-0.25625 -0.72625,-0.6625 -0.8325,-1.2175 l -4.82875,0 c 0.1075,2.7775 2.75625,5.14875 6.815,5.14875 4.23,0 7.19875,-1.73 7.19875,-5.2975 0,-5.5975 -8.84375,-4.16625 -8.84375,-6.47375 0,-0.555 0.49125,-0.875 1.6025,-0.875 0.49125,0 0.94,0.085 1.3025,0.2775 0.3625,0.1925 0.64125,0.5125 0.72625,1.04625 l 4.785,0"
         style="fill:#835311;fill-opacity:1;fill-rule:nonzero;stroke:none"
         id="path3538"
         inkscape:connector-curvature="0" />
      <path
         d="m -133.36026,425.51985 0,-3.2475 -5.1275,0 4.8925,-4.84875 0,-3.0975 -10.08375,0 0,3.2475 4.615,0 -5.06375,4.9775 0,2.96875 10.7675,0"
         style="fill:#835311;fill-opacity:1;fill-rule:nonzero;stroke:none"
         id="path3540"
         inkscape:connector-curvature="0" />
      <path
         d="m -125.65026,416.9961 c 1.15375,-0.0638 1.88,1.175 1.88,2.82 0,2.115 -0.72625,3.03375 -1.9225,3.03375 -1.1325,0 -1.9225,-0.91875 -1.9225,-3.03375 0,-1.26 0.44875,-2.82 1.965,-2.82 z m -6.40875,3.055 c 0,3.82375 2.7775,5.78875 6.36625,5.78875 3.58875,0 6.36625,-1.9225 6.36625,-6.02375 0,-3.4825 -2.435,-5.81 -6.3875,-5.81 -3.78125,0 -6.345,2.1575 -6.345,6.045"
         style="fill:#835311;fill-opacity:1;fill-rule:evenodd;stroke:none"
         id="path3542"
         inkscape:connector-curvature="0" />
      <path
         d="m -117.22651,425.51985 4.44336,0 0,-15.38087 -4.44336,0 0,15.38087 z"
         style="fill:#835311;fill-opacity:1;fill-rule:nonzero;stroke:none"
         id="path3544"
         inkscape:connector-curvature="0" />
      <path
         d="m -104.51901,417.1886 c 1.41,0 1.88,1.175 1.88,2.41375 0,1.19625 -0.5125,2.37125 -1.88,2.3075 -1.19625,-0.0213 -1.75125,-1.0675 -1.75125,-2.17875 0,-1.4525 0.405,-2.56375 1.75125,-2.5425 z m -5.6175,8.90875 c 0.21375,1.64375 1.87875,3.225 5.83125,3.225 5.5125,0 5.89625,-2.6275 5.89625,-5.98125 l 0,-9.015 -3.90875,0 0,1.47375 c -0.79125,-1.09 -2.05125,-1.79375 -3.3975,-1.79375 -3.67375,0 -4.99875,2.92625 -4.99875,5.68125 0,2.86375 1.77375,5.29875 4.87125,5.29875 1.60125,0 2.5625,-0.57625 3.20375,-1.2175 l 0,0.91875 c 0,1.6025 -0.5125,2.17875 -1.79375,2.17875 -0.44875,0 -0.76875,-0.1075 -0.96125,-0.27875 -0.1925,-0.17 -0.27875,-0.3625 -0.27875,-0.49 l -4.46375,0"
         style="fill:#835311;fill-opacity:1;fill-rule:evenodd;stroke:none"
         id="path3546"
         inkscape:connector-curvature="0" />
      <path
         d="m -92.20651,412.9161 2.92625,0 3.675,-3.16125 -4.465,0 -2.13625,3.16125 z m 8.56625,12.60375 0,-0.21375 c -0.5775,-0.46875 -0.59875,-0.79 -0.59875,-1.43125 l 0,-5.23375 c 0,-2.67 -0.32,-4.635 -5.6175,-4.635 -4.4225,0 -6.11,1.3875 -6.11,3.76 l 4.2725,0 c 0.10625,-0.9625 0.94,-1.09 1.55875,-1.09 0.47125,0 1.45375,0.10625 1.45375,0.91875 0,2.0925 -7.96875,-0.21375 -7.96875,4.87 0,2.32875 1.88,3.375 3.995,3.375 1.66625,0 2.9475,-0.34125 4.2075,-1.51625 l 0.215,1.19625 4.5925,0 z m -7.0075,-2.2 c -0.875,0 -1.40875,-0.38375 -1.40875,-0.94 0,-1.4525 1.92125,-1.11125 3.375,-1.81625 0.10625,1.53875 -0.40625,2.75625 -1.96625,2.75625"
         style="fill:#835311;fill-opacity:1;fill-rule:evenodd;stroke:none"
         id="path3548"
         inkscape:connector-curvature="0" />
      <path
         d="m -81.60401,425.51985 4.44385,0 0,-15.38087 -4.44385,0 0,15.38087 z"
         style="fill:#835311;fill-opacity:1;fill-rule:nonzero;stroke:none"
         id="path3550"
         inkscape:connector-curvature="0" />
      <path
         d="m -67.40026,422.33735 -0.705,0 c -1.24,0 -1.38875,-0.36375 -1.38875,-1.38875 l 0,-4.05875 2.13625,0 0,-2.56375 -2.13625,0 0,-3.4825 -4.38,0 0,3.4825 -1.645,0 0,2.56375 1.58125,0 0,4.6775 c 0,3.8675 0.705,4.2725 6.5375,3.9525 l 0,-3.1825"
         style="fill:#835311;fill-opacity:1;fill-rule:nonzero;stroke:none"
         id="path3552"
         inkscape:connector-curvature="0" />
      <path
         d="m -52.79151,425.51985 0,-0.21375 c -0.57625,-0.46875 -0.5975,-0.79 -0.5975,-1.43125 l 0,-5.23375 c 0,-2.67 -0.32,-4.635 -5.61875,-4.635 -4.42125,0 -6.10875,1.3875 -6.10875,3.76 l 4.2725,0 c 0.10625,-0.9625 0.93875,-1.09 1.55875,-1.09 0.47,0 1.4525,0.10625 1.4525,0.91875 0,2.0925 -7.9675,-0.21375 -7.9675,4.87 0,2.32875 1.88,3.375 3.99375,3.375 1.6675,0 2.94875,-0.34125 4.20875,-1.51625 l 0.21375,1.19625 4.5925,0 z m -7.00625,-2.2 c -0.87625,0 -1.41,-0.38375 -1.41,-0.94 0,-1.4525 1.9225,-1.11125 3.375,-1.81625 0.1075,1.53875 -0.405,2.75625 -1.965,2.75625"
         style="fill:#835311;fill-opacity:1;fill-rule:evenodd;stroke:none"
         id="path3554"
         inkscape:connector-curvature="0" />
      <path
         d="m -43.66151,422.33735 -0.705,0 c -1.23875,0 -1.38875,-0.36375 -1.38875,-1.38875 l 0,-4.05875 2.13625,0 0,-2.56375 -2.13625,0 0,-3.4825 -4.38,0 0,3.4825 -1.645,0 0,2.56375 1.58125,0 0,4.6775 c 0,3.8675 0.705,4.2725 6.5375,3.9525 l 0,-3.1825"
         style="fill:#835311;fill-opacity:1;fill-rule:nonzero;stroke:none"
         id="path3556"
         inkscape:connector-curvature="0" />
      <path
         d="m -37.61776,412.9161 2.92625,0 3.67375,-3.16125 -4.46375,0 -2.13625,3.16125 z m 2.17875,4.08 c 1.15375,-0.0638 1.88,1.175 1.88,2.82 0,2.115 -0.72625,3.03375 -1.9225,3.03375 -1.13375,0 -1.92375,-0.91875 -1.92375,-3.03375 0,-1.26 0.44875,-2.82 1.96625,-2.82 z m -6.40875,3.055 c 0,3.82375 2.7775,5.78875 6.36625,5.78875 3.58875,0 6.365,-1.9225 6.365,-6.02375 0,-3.4825 -2.435,-5.81 -6.38625,-5.81 -3.78125,0 -6.345,2.1575 -6.345,6.045"
         style="fill:#835311;fill-opacity:1;fill-rule:evenodd;stroke:none"
         id="path3558"
         inkscape:connector-curvature="0" />
      <path
         d="m -19.62776,425.51985 5.0425,0 0,-4.87 1.19625,-1.26125 3.695,6.13125 6.04625,0 -6.2175,-9.59125 5.61875,-5.79 -5.9175,0 -4.42125,4.9775 0,-4.9775 -5.0425,0 0,15.38125"
         style="fill:#835311;fill-opacity:1;fill-rule:nonzero;stroke:none"
         id="path3560"
         inkscape:connector-curvature="0" />
      <path
         d="m 2.67724,414.3261 c -0.10625,-1.795 0.40625,-1.795 1.85875,-1.795 l 0,-2.7975 -1.90125,0 c -2.84125,0 -4.37875,0.64 -4.37875,4.5925 l -1.49625,0 0,2.56375 1.47375,0 0,8.63 4.44375,0 0,-8.63 1.85875,0 0,-2.56375 -1.85875,0"
         style="fill:#835311;fill-opacity:1;fill-rule:nonzero;stroke:none"
         id="path3562"
         inkscape:connector-curvature="0" />
      <path
         d="m 13.29099,422.33735 -0.70375,0 c -1.24,0 -1.38875,-0.36375 -1.38875,-1.38875 l 0,-4.05875 2.13625,0 0,-2.56375 -2.13625,0 0,-3.4825 -4.38,0 0,3.4825 -1.645,0 0,2.56375 1.58125,0 0,4.6775 c 0,3.8675 0.705,4.2725 6.53625,3.9525 l 0,-3.1825"
         style="fill:#835311;fill-opacity:1;fill-rule:nonzero;stroke:none"
         id="path3564"
         inkscape:connector-curvature="0" />
      <path
         d="m 15.63974,425.51985 4.528813,0 0,-4.40087 -4.528813,0 0,4.40087 z"
         style="fill:#835311;fill-opacity:1;fill-rule:nonzero;stroke:none"
         id="path3566"
         inkscape:connector-curvature="0" />
    </g>
  </g>
</svg>
